<mxfile host="app.diagrams.net" modified="2021-08-16T07:59:40.623Z" agent="5.0 (Windows NT 10.0; Win64; x64) AppleWebKit/537.36 (KHTML, like Gecko) Chrome/91.0.4472.124 Safari/537.36" etag="5YoStb-KPG951oNHnzDa" version="14.9.6" type="github">
  <diagram id="ImgcMLIqiYwZTMRbbI1s" name="Page-1">
    <mxGraphModel dx="4382" dy="4103" grid="0" gridSize="10" guides="1" tooltips="1" connect="1" arrows="1" fold="1" page="1" pageScale="1" pageWidth="827" pageHeight="1169" background="#F1FAEE" math="0" shadow="0">
      <root>
        <mxCell id="0" />
        <mxCell id="1" parent="0" />
        <mxCell id="jJwX38wuJhDpMQXWMxyG-55" style="edgeStyle=none;rounded=0;orthogonalLoop=1;jettySize=auto;html=1;exitX=1;exitY=0.5;exitDx=0;exitDy=0;entryX=0.011;entryY=0.401;entryDx=0;entryDy=0;entryPerimeter=0;labelBackgroundColor=#F1FAEE;strokeColor=#457B9D;fontColor=#1D3557;" parent="1" source="jJwX38wuJhDpMQXWMxyG-50" target="jJwX38wuJhDpMQXWMxyG-54" edge="1">
          <mxGeometry relative="1" as="geometry" />
        </mxCell>
        <mxCell id="jJwX38wuJhDpMQXWMxyG-56" value="&lt;font style=&quot;font-size: 18px&quot;&gt;日志上报&lt;/font&gt;" style="edgeLabel;html=1;align=center;verticalAlign=middle;resizable=0;points=[];labelBackgroundColor=#F1FAEE;fontColor=#1D3557;" parent="jJwX38wuJhDpMQXWMxyG-55" vertex="1" connectable="0">
          <mxGeometry x="-0.3469" relative="1" as="geometry">
            <mxPoint x="19" y="18" as="offset" />
          </mxGeometry>
        </mxCell>
        <mxCell id="jJwX38wuJhDpMQXWMxyG-50" value="" style="rounded=0;whiteSpace=wrap;html=1;shadow=0;glass=0;sketch=0;fillColor=#A8DADC;strokeColor=#457B9D;fontColor=#1D3557;" parent="1" vertex="1">
          <mxGeometry x="29" y="-931" width="1234" height="317" as="geometry" />
        </mxCell>
        <mxCell id="jJwX38wuJhDpMQXWMxyG-12" style="rounded=0;orthogonalLoop=1;jettySize=auto;html=1;exitX=0.5;exitY=1;exitDx=0;exitDy=0;labelBackgroundColor=#F1FAEE;strokeColor=#457B9D;fontColor=#1D3557;" parent="1" source="jJwX38wuJhDpMQXWMxyG-6" target="jJwX38wuJhDpMQXWMxyG-11" edge="1">
          <mxGeometry relative="1" as="geometry" />
        </mxCell>
        <mxCell id="jJwX38wuJhDpMQXWMxyG-75" style="edgeStyle=none;rounded=0;orthogonalLoop=1;jettySize=auto;html=1;exitX=0.5;exitY=0;exitDx=0;exitDy=0;entryX=0.5;entryY=1;entryDx=0;entryDy=0;labelBackgroundColor=#F1FAEE;strokeColor=#457B9D;fontColor=#1D3557;" parent="1" source="jJwX38wuJhDpMQXWMxyG-6" target="jJwX38wuJhDpMQXWMxyG-73" edge="1">
          <mxGeometry relative="1" as="geometry" />
        </mxCell>
        <mxCell id="jJwX38wuJhDpMQXWMxyG-6" value="机具" style="rounded=0;whiteSpace=wrap;html=1;shadow=0;glass=0;sketch=0;fillColor=#A8DADC;strokeColor=#457B9D;fontColor=#1D3557;" parent="1" vertex="1">
          <mxGeometry x="356" y="-1106" width="82" height="32" as="geometry" />
        </mxCell>
        <mxCell id="jJwX38wuJhDpMQXWMxyG-15" style="edgeStyle=none;rounded=0;orthogonalLoop=1;jettySize=auto;html=1;exitX=0.5;exitY=1;exitDx=0;exitDy=0;labelBackgroundColor=#F1FAEE;strokeColor=#457B9D;fontColor=#1D3557;" parent="1" source="jJwX38wuJhDpMQXWMxyG-9" target="jJwX38wuJhDpMQXWMxyG-11" edge="1">
          <mxGeometry relative="1" as="geometry" />
        </mxCell>
        <mxCell id="jJwX38wuJhDpMQXWMxyG-78" style="edgeStyle=none;rounded=0;orthogonalLoop=1;jettySize=auto;html=1;exitX=0.5;exitY=0;exitDx=0;exitDy=0;labelBackgroundColor=#F1FAEE;strokeColor=#457B9D;fontColor=#1D3557;" parent="1" source="jJwX38wuJhDpMQXWMxyG-9" edge="1">
          <mxGeometry relative="1" as="geometry">
            <mxPoint x="510.42857142857156" y="-1188.428571428571" as="targetPoint" />
          </mxGeometry>
        </mxCell>
        <mxCell id="jJwX38wuJhDpMQXWMxyG-9" value="机具" style="rounded=0;whiteSpace=wrap;html=1;shadow=0;glass=0;sketch=0;fillColor=#A8DADC;strokeColor=#457B9D;fontColor=#1D3557;" parent="1" vertex="1">
          <mxGeometry x="469" y="-1106" width="82" height="32" as="geometry" />
        </mxCell>
        <mxCell id="jJwX38wuJhDpMQXWMxyG-14" style="edgeStyle=none;rounded=0;orthogonalLoop=1;jettySize=auto;html=1;exitX=0.5;exitY=1;exitDx=0;exitDy=0;labelBackgroundColor=#F1FAEE;strokeColor=#457B9D;fontColor=#1D3557;" parent="1" source="jJwX38wuJhDpMQXWMxyG-10" target="jJwX38wuJhDpMQXWMxyG-11" edge="1">
          <mxGeometry relative="1" as="geometry" />
        </mxCell>
        <mxCell id="jJwX38wuJhDpMQXWMxyG-77" style="edgeStyle=none;rounded=0;orthogonalLoop=1;jettySize=auto;html=1;exitX=0.5;exitY=0;exitDx=0;exitDy=0;entryX=0.5;entryY=1;entryDx=0;entryDy=0;labelBackgroundColor=#F1FAEE;strokeColor=#457B9D;fontColor=#1D3557;" parent="1" source="jJwX38wuJhDpMQXWMxyG-10" target="jJwX38wuJhDpMQXWMxyG-73" edge="1">
          <mxGeometry relative="1" as="geometry" />
        </mxCell>
        <mxCell id="jJwX38wuJhDpMQXWMxyG-10" value="机具" style="rounded=0;whiteSpace=wrap;html=1;shadow=0;glass=0;sketch=0;fillColor=#A8DADC;strokeColor=#457B9D;fontColor=#1D3557;" parent="1" vertex="1">
          <mxGeometry x="592" y="-1104" width="82" height="32" as="geometry" />
        </mxCell>
        <mxCell id="jJwX38wuJhDpMQXWMxyG-16" style="edgeStyle=none;rounded=0;orthogonalLoop=1;jettySize=auto;html=1;exitX=0.5;exitY=1;exitDx=0;exitDy=0;labelBackgroundColor=#F1FAEE;strokeColor=#457B9D;fontColor=#1D3557;" parent="1" source="jJwX38wuJhDpMQXWMxyG-11" target="jJwX38wuJhDpMQXWMxyG-17" edge="1">
          <mxGeometry relative="1" as="geometry">
            <mxPoint x="329" y="-870" as="targetPoint" />
          </mxGeometry>
        </mxCell>
        <mxCell id="jJwX38wuJhDpMQXWMxyG-11" value="网关" style="rounded=0;whiteSpace=wrap;html=1;shadow=0;glass=0;sketch=0;fillColor=#A8DADC;strokeColor=#457B9D;fontColor=#1D3557;" parent="1" vertex="1">
          <mxGeometry x="291.5" y="-1009" width="440" height="34" as="geometry" />
        </mxCell>
        <mxCell id="jJwX38wuJhDpMQXWMxyG-18" style="edgeStyle=none;rounded=0;orthogonalLoop=1;jettySize=auto;html=1;exitX=0.5;exitY=1;exitDx=0;exitDy=0;labelBackgroundColor=#F1FAEE;strokeColor=#457B9D;fontColor=#1D3557;" parent="1" source="jJwX38wuJhDpMQXWMxyG-17" edge="1">
          <mxGeometry relative="1" as="geometry">
            <mxPoint x="198" y="-761" as="targetPoint" />
          </mxGeometry>
        </mxCell>
        <mxCell id="jJwX38wuJhDpMQXWMxyG-20" value="代扣" style="edgeLabel;html=1;align=center;verticalAlign=middle;resizable=0;points=[];labelBackgroundColor=#F1FAEE;fontColor=#1D3557;" parent="jJwX38wuJhDpMQXWMxyG-18" vertex="1" connectable="0">
          <mxGeometry x="-0.2235" y="1" relative="1" as="geometry">
            <mxPoint as="offset" />
          </mxGeometry>
        </mxCell>
        <mxCell id="jJwX38wuJhDpMQXWMxyG-30" style="edgeStyle=none;rounded=0;orthogonalLoop=1;jettySize=auto;html=1;exitX=0.5;exitY=1;exitDx=0;exitDy=0;entryX=0.601;entryY=0.009;entryDx=0;entryDy=0;entryPerimeter=0;labelBackgroundColor=#F1FAEE;strokeColor=#457B9D;fontColor=#1D3557;" parent="1" source="jJwX38wuJhDpMQXWMxyG-17" target="jJwX38wuJhDpMQXWMxyG-22" edge="1">
          <mxGeometry relative="1" as="geometry" />
        </mxCell>
        <mxCell id="jJwX38wuJhDpMQXWMxyG-31" value="原生码支付" style="edgeLabel;html=1;align=center;verticalAlign=middle;resizable=0;points=[];labelBackgroundColor=#F1FAEE;fontColor=#1D3557;" parent="jJwX38wuJhDpMQXWMxyG-30" vertex="1" connectable="0">
          <mxGeometry x="-0.1357" y="3" relative="1" as="geometry">
            <mxPoint as="offset" />
          </mxGeometry>
        </mxCell>
        <mxCell id="jJwX38wuJhDpMQXWMxyG-32" value="机具配置拉取" style="edgeStyle=none;rounded=0;orthogonalLoop=1;jettySize=auto;html=1;exitX=0.5;exitY=1;exitDx=0;exitDy=0;entryX=0.412;entryY=-0.034;entryDx=0;entryDy=0;entryPerimeter=0;labelBackgroundColor=#F1FAEE;strokeColor=#457B9D;fontColor=#1D3557;" parent="1" source="jJwX38wuJhDpMQXWMxyG-17" target="jJwX38wuJhDpMQXWMxyG-28" edge="1">
          <mxGeometry relative="1" as="geometry">
            <Array as="points" />
          </mxGeometry>
        </mxCell>
        <mxCell id="jJwX38wuJhDpMQXWMxyG-17" value="机具请求接口" style="rounded=0;whiteSpace=wrap;html=1;shadow=0;glass=0;sketch=0;fillColor=#A8DADC;strokeColor=#457B9D;fontColor=#1D3557;" parent="1" vertex="1">
          <mxGeometry x="392" y="-913" width="239" height="41" as="geometry" />
        </mxCell>
        <mxCell id="jJwX38wuJhDpMQXWMxyG-19" value="米大师支付模块" style="rounded=0;whiteSpace=wrap;html=1;shadow=0;glass=0;sketch=0;fillColor=#A8DADC;strokeColor=#457B9D;fontColor=#1D3557;" parent="1" vertex="1">
          <mxGeometry x="64" y="-758" width="278" height="107" as="geometry" />
        </mxCell>
        <mxCell id="jJwX38wuJhDpMQXWMxyG-22" value="&lt;span&gt;聚合支付引擎&lt;/span&gt;" style="rounded=0;whiteSpace=wrap;html=1;shadow=0;glass=0;sketch=0;fillColor=#A8DADC;strokeColor=#457B9D;fontColor=#1D3557;" parent="1" vertex="1">
          <mxGeometry x="744" y="-760" width="338" height="107" as="geometry" />
        </mxCell>
        <mxCell id="jJwX38wuJhDpMQXWMxyG-43" style="edgeStyle=none;rounded=0;orthogonalLoop=1;jettySize=auto;html=1;exitX=0.5;exitY=1;exitDx=0;exitDy=0;entryX=0.461;entryY=0;entryDx=0;entryDy=0;entryPerimeter=0;labelBackgroundColor=#F1FAEE;strokeColor=#457B9D;fontColor=#1D3557;" parent="1" source="jJwX38wuJhDpMQXWMxyG-23" target="jJwX38wuJhDpMQXWMxyG-41" edge="1">
          <mxGeometry relative="1" as="geometry" />
        </mxCell>
        <mxCell id="jJwX38wuJhDpMQXWMxyG-49" value="监控数据上报" style="edgeLabel;html=1;align=center;verticalAlign=middle;resizable=0;points=[];labelBackgroundColor=#F1FAEE;fontColor=#1D3557;" parent="jJwX38wuJhDpMQXWMxyG-43" vertex="1" connectable="0">
          <mxGeometry x="-0.0831" y="-4" relative="1" as="geometry">
            <mxPoint as="offset" />
          </mxGeometry>
        </mxCell>
        <mxCell id="jJwX38wuJhDpMQXWMxyG-23" value="监控组件" style="ellipse;whiteSpace=wrap;html=1;shadow=0;glass=0;sketch=0;fillColor=#A8DADC;strokeColor=#457B9D;fontColor=#1D3557;" parent="1" vertex="1">
          <mxGeometry x="73" y="-715" width="72" height="47" as="geometry" />
        </mxCell>
        <mxCell id="jJwX38wuJhDpMQXWMxyG-25" value="微信支付" style="ellipse;whiteSpace=wrap;html=1;shadow=0;glass=0;sketch=0;fillColor=#A8DADC;strokeColor=#457B9D;fontColor=#1D3557;" parent="1" vertex="1">
          <mxGeometry x="764" y="-703" width="94" height="37" as="geometry" />
        </mxCell>
        <mxCell id="jJwX38wuJhDpMQXWMxyG-26" value="支付宝支付" style="ellipse;whiteSpace=wrap;html=1;shadow=0;glass=0;sketch=0;fillColor=#A8DADC;strokeColor=#457B9D;fontColor=#1D3557;" parent="1" vertex="1">
          <mxGeometry x="760" y="-753" width="95" height="33" as="geometry" />
        </mxCell>
        <mxCell id="jJwX38wuJhDpMQXWMxyG-44" value="监控数据上报" style="edgeStyle=none;rounded=0;orthogonalLoop=1;jettySize=auto;html=1;exitX=0.5;exitY=1;exitDx=0;exitDy=0;entryX=0.542;entryY=0.011;entryDx=0;entryDy=0;entryPerimeter=0;labelBackgroundColor=#F1FAEE;strokeColor=#457B9D;fontColor=#1D3557;" parent="1" source="jJwX38wuJhDpMQXWMxyG-27" target="jJwX38wuJhDpMQXWMxyG-41" edge="1">
          <mxGeometry relative="1" as="geometry" />
        </mxCell>
        <mxCell id="jJwX38wuJhDpMQXWMxyG-27" value="监控组件" style="ellipse;whiteSpace=wrap;html=1;shadow=0;glass=0;sketch=0;fillColor=#A8DADC;strokeColor=#457B9D;fontColor=#1D3557;" parent="1" vertex="1">
          <mxGeometry x="993" y="-732" width="85" height="51" as="geometry" />
        </mxCell>
        <mxCell id="jJwX38wuJhDpMQXWMxyG-34" style="edgeStyle=none;rounded=0;orthogonalLoop=1;jettySize=auto;html=1;exitX=1;exitY=0.5;exitDx=0;exitDy=0;labelBackgroundColor=#F1FAEE;strokeColor=#457B9D;fontColor=#1D3557;" parent="1" source="jJwX38wuJhDpMQXWMxyG-28" target="jJwX38wuJhDpMQXWMxyG-22" edge="1">
          <mxGeometry relative="1" as="geometry" />
        </mxCell>
        <mxCell id="jJwX38wuJhDpMQXWMxyG-28" value="支付管理模块" style="rounded=0;whiteSpace=wrap;html=1;shadow=0;glass=0;sketch=0;fillColor=#A8DADC;strokeColor=#457B9D;fontColor=#1D3557;" parent="1" vertex="1">
          <mxGeometry x="398" y="-753" width="272" height="102" as="geometry" />
        </mxCell>
        <mxCell id="jJwX38wuJhDpMQXWMxyG-42" value="监控数据上报" style="edgeStyle=none;rounded=0;orthogonalLoop=1;jettySize=auto;html=1;exitX=0.5;exitY=1;exitDx=0;exitDy=0;labelBackgroundColor=#F1FAEE;strokeColor=#457B9D;fontColor=#1D3557;" parent="1" source="jJwX38wuJhDpMQXWMxyG-29" target="jJwX38wuJhDpMQXWMxyG-41" edge="1">
          <mxGeometry relative="1" as="geometry" />
        </mxCell>
        <mxCell id="jJwX38wuJhDpMQXWMxyG-29" value="监控组件" style="ellipse;whiteSpace=wrap;html=1;shadow=0;glass=0;sketch=0;fillColor=#A8DADC;strokeColor=#457B9D;fontColor=#1D3557;" parent="1" vertex="1">
          <mxGeometry x="570.5" y="-728" width="83" height="52" as="geometry" />
        </mxCell>
        <mxCell id="jJwX38wuJhDpMQXWMxyG-33" style="edgeStyle=none;rounded=0;orthogonalLoop=1;jettySize=auto;html=1;exitX=0;exitY=0.5;exitDx=0;exitDy=0;labelBackgroundColor=#F1FAEE;strokeColor=#457B9D;fontColor=#1D3557;" parent="1" source="jJwX38wuJhDpMQXWMxyG-29" target="jJwX38wuJhDpMQXWMxyG-29" edge="1">
          <mxGeometry relative="1" as="geometry" />
        </mxCell>
        <mxCell id="jJwX38wuJhDpMQXWMxyG-67" value="&lt;font style=&quot;font-size: 18px&quot;&gt;告警信息知会&lt;/font&gt;" style="edgeStyle=none;rounded=0;orthogonalLoop=1;jettySize=auto;html=1;exitX=0.5;exitY=1;exitDx=0;exitDy=0;entryX=0.353;entryY=0.023;entryDx=0;entryDy=0;entryPerimeter=0;labelBackgroundColor=#F1FAEE;strokeColor=#457B9D;fontColor=#1D3557;" parent="1" source="jJwX38wuJhDpMQXWMxyG-41" target="jJwX38wuJhDpMQXWMxyG-64" edge="1">
          <mxGeometry relative="1" as="geometry" />
        </mxCell>
        <mxCell id="jJwX38wuJhDpMQXWMxyG-41" value="&lt;font style=&quot;font-size: 18px&quot;&gt;监控宝&lt;/font&gt;" style="rounded=0;whiteSpace=wrap;html=1;shadow=0;glass=0;sketch=0;fillColor=#A8DADC;strokeColor=#457B9D;fontColor=#1D3557;" parent="1" vertex="1">
          <mxGeometry x="130" y="-329" width="958" height="87" as="geometry" />
        </mxCell>
        <mxCell id="jJwX38wuJhDpMQXWMxyG-51" value="Text" style="text;html=1;strokeColor=none;fillColor=none;align=center;verticalAlign=middle;whiteSpace=wrap;rounded=0;shadow=0;glass=0;sketch=0;fontColor=#1D3557;" parent="1" vertex="1">
          <mxGeometry x="662" y="-726" width="40" height="20" as="geometry" />
        </mxCell>
        <mxCell id="jJwX38wuJhDpMQXWMxyG-52" value="&lt;font style=&quot;font-size: 24px&quot;&gt;支付模块&lt;/font&gt;" style="text;html=1;strokeColor=none;fillColor=none;align=center;verticalAlign=middle;whiteSpace=wrap;rounded=0;shadow=0;glass=0;sketch=0;fontColor=#1D3557;" parent="1" vertex="1">
          <mxGeometry x="840" y="-911" width="455" height="13" as="geometry" />
        </mxCell>
        <mxCell id="jJwX38wuJhDpMQXWMxyG-53" style="edgeStyle=none;rounded=0;orthogonalLoop=1;jettySize=auto;html=1;exitX=0.5;exitY=0;exitDx=0;exitDy=0;labelBackgroundColor=#F1FAEE;strokeColor=#457B9D;fontColor=#1D3557;" parent="1" source="jJwX38wuJhDpMQXWMxyG-10" target="jJwX38wuJhDpMQXWMxyG-10" edge="1">
          <mxGeometry relative="1" as="geometry" />
        </mxCell>
        <mxCell id="jJwX38wuJhDpMQXWMxyG-58" value="&lt;font style=&quot;font-size: 24px&quot;&gt;指标数据上报&lt;/font&gt;" style="edgeStyle=none;rounded=0;orthogonalLoop=1;jettySize=auto;html=1;exitX=-0.011;exitY=0.955;exitDx=0;exitDy=0;entryX=1;entryY=0.632;entryDx=0;entryDy=0;entryPerimeter=0;exitPerimeter=0;labelBackgroundColor=#F1FAEE;strokeColor=#457B9D;fontColor=#1D3557;" parent="1" source="jJwX38wuJhDpMQXWMxyG-54" target="jJwX38wuJhDpMQXWMxyG-41" edge="1">
          <mxGeometry relative="1" as="geometry" />
        </mxCell>
        <mxCell id="jJwX38wuJhDpMQXWMxyG-54" value="&lt;font style=&quot;font-size: 24px&quot;&gt;日志汇&lt;/font&gt;" style="rounded=0;whiteSpace=wrap;html=1;shadow=0;glass=0;sketch=0;fillColor=#A8DADC;strokeColor=#457B9D;fontColor=#1D3557;" parent="1" vertex="1">
          <mxGeometry x="1383" y="-1135.5" width="91" height="902" as="geometry" />
        </mxCell>
        <mxCell id="jJwX38wuJhDpMQXWMxyG-59" value="数据聚合" style="ellipse;whiteSpace=wrap;html=1;shadow=0;glass=0;sketch=0;fillColor=#A8DADC;strokeColor=#457B9D;fontColor=#1D3557;" parent="1" vertex="1">
          <mxGeometry x="192" y="-303" width="96" height="48" as="geometry" />
        </mxCell>
        <mxCell id="jJwX38wuJhDpMQXWMxyG-60" value="多维度-指标视图" style="ellipse;whiteSpace=wrap;html=1;shadow=0;glass=0;sketch=0;fillColor=#A8DADC;strokeColor=#457B9D;fontColor=#1D3557;" parent="1" vertex="1">
          <mxGeometry x="312" y="-303" width="107" height="51" as="geometry" />
        </mxCell>
        <mxCell id="jJwX38wuJhDpMQXWMxyG-61" value="告警配置" style="ellipse;whiteSpace=wrap;html=1;shadow=0;glass=0;sketch=0;fillColor=#A8DADC;strokeColor=#457B9D;fontColor=#1D3557;" parent="1" vertex="1">
          <mxGeometry x="756" y="-299.5" width="84" height="41" as="geometry" />
        </mxCell>
        <mxCell id="jJwX38wuJhDpMQXWMxyG-62" style="edgeStyle=none;rounded=0;orthogonalLoop=1;jettySize=auto;html=1;exitX=1;exitY=1;exitDx=0;exitDy=0;labelBackgroundColor=#F1FAEE;strokeColor=#457B9D;fontColor=#1D3557;" parent="1" source="jJwX38wuJhDpMQXWMxyG-60" target="jJwX38wuJhDpMQXWMxyG-60" edge="1">
          <mxGeometry relative="1" as="geometry" />
        </mxCell>
        <mxCell id="jJwX38wuJhDpMQXWMxyG-66" value="&lt;font style=&quot;font-size: 18px&quot;&gt;根据告警信息进行排查排查&lt;/font&gt;" style="edgeStyle=none;rounded=0;orthogonalLoop=1;jettySize=auto;html=1;entryX=0.5;entryY=1;entryDx=0;entryDy=0;labelBackgroundColor=#F1FAEE;strokeColor=#457B9D;fontColor=#1D3557;" parent="1" target="jJwX38wuJhDpMQXWMxyG-54" edge="1">
          <mxGeometry relative="1" as="geometry">
            <mxPoint x="1428" y="-112" as="sourcePoint" />
          </mxGeometry>
        </mxCell>
        <mxCell id="jJwX38wuJhDpMQXWMxyG-64" value="&lt;font style=&quot;font-size: 24px&quot;&gt;研发人员&lt;/font&gt;" style="rounded=0;whiteSpace=wrap;html=1;shadow=0;glass=0;sketch=0;fillColor=#A8DADC;strokeColor=#457B9D;fontColor=#1D3557;" parent="1" vertex="1">
          <mxGeometry x="126" y="-110" width="1370" height="87" as="geometry" />
        </mxCell>
        <mxCell id="jJwX38wuJhDpMQXWMxyG-79" value="数据转发" style="edgeStyle=none;rounded=0;orthogonalLoop=1;jettySize=auto;html=1;exitX=0.5;exitY=0;exitDx=0;exitDy=0;labelBackgroundColor=#F1FAEE;strokeColor=#457B9D;fontColor=#1D3557;" parent="1" source="jJwX38wuJhDpMQXWMxyG-73" edge="1">
          <mxGeometry relative="1" as="geometry">
            <mxPoint x="509" y="-1313" as="targetPoint" />
          </mxGeometry>
        </mxCell>
        <mxCell id="jJwX38wuJhDpMQXWMxyG-73" value="&lt;font style=&quot;font-size: 18px&quot;&gt;腾讯云IOT平台&lt;/font&gt;" style="rounded=0;whiteSpace=wrap;html=1;shadow=0;glass=0;sketch=0;fillColor=#A8DADC;strokeColor=#457B9D;fontColor=#1D3557;" parent="1" vertex="1">
          <mxGeometry x="416.5" y="-1226" width="185.5" height="30" as="geometry" />
        </mxCell>
        <mxCell id="jJwX38wuJhDpMQXWMxyG-82" style="edgeStyle=none;rounded=0;orthogonalLoop=1;jettySize=auto;html=1;exitX=1;exitY=0.5;exitDx=0;exitDy=0;entryX=0.5;entryY=0;entryDx=0;entryDy=0;labelBackgroundColor=#F1FAEE;strokeColor=#457B9D;fontColor=#1D3557;" parent="1" source="jJwX38wuJhDpMQXWMxyG-80" target="jJwX38wuJhDpMQXWMxyG-54" edge="1">
          <mxGeometry relative="1" as="geometry">
            <Array as="points">
              <mxPoint x="1428" y="-1333" />
            </Array>
          </mxGeometry>
        </mxCell>
        <mxCell id="jJwX38wuJhDpMQXWMxyG-83" value="&lt;font style=&quot;font-size: 24px&quot;&gt;转发上报数据至日志汇做持久化存储&lt;/font&gt;" style="edgeLabel;html=1;align=center;verticalAlign=middle;resizable=0;points=[];labelBackgroundColor=#F1FAEE;fontColor=#1D3557;" parent="jJwX38wuJhDpMQXWMxyG-82" vertex="1" connectable="0">
          <mxGeometry x="-0.0667" y="1" relative="1" as="geometry">
            <mxPoint x="-6" y="-20" as="offset" />
          </mxGeometry>
        </mxCell>
        <mxCell id="jJwX38wuJhDpMQXWMxyG-89" style="edgeStyle=none;rounded=0;orthogonalLoop=1;jettySize=auto;html=1;exitX=0;exitY=0.5;exitDx=0;exitDy=0;entryX=0;entryY=0.5;entryDx=0;entryDy=0;labelBackgroundColor=#F1FAEE;strokeColor=#457B9D;fontColor=#1D3557;" parent="1" source="jJwX38wuJhDpMQXWMxyG-80" target="jJwX38wuJhDpMQXWMxyG-64" edge="1">
          <mxGeometry relative="1" as="geometry">
            <Array as="points">
              <mxPoint x="1" y="-1333" />
              <mxPoint x="1" y="-66" />
            </Array>
          </mxGeometry>
        </mxCell>
        <mxCell id="jJwX38wuJhDpMQXWMxyG-80" value="&lt;font style=&quot;font-size: 24px&quot;&gt;cloudBase-云函数&lt;/font&gt;" style="rounded=0;whiteSpace=wrap;html=1;shadow=0;glass=0;sketch=0;fillColor=#A8DADC;strokeColor=#457B9D;fontColor=#1D3557;" parent="1" vertex="1">
          <mxGeometry x="342" y="-1358" width="366" height="49" as="geometry" />
        </mxCell>
        <mxCell id="jJwX38wuJhDpMQXWMxyG-90" value="&lt;font style=&quot;font-size: 24px&quot;&gt;监控数据上报&lt;/font&gt;" style="text;html=1;strokeColor=none;fillColor=none;align=center;verticalAlign=middle;whiteSpace=wrap;rounded=0;shadow=0;glass=0;sketch=0;fontColor=#1D3557;" parent="1" vertex="1">
          <mxGeometry x="41" y="-1366" width="230" height="20" as="geometry" />
        </mxCell>
      </root>
    </mxGraphModel>
  </diagram>
</mxfile>
